<svg width="129" height="41" viewBox="0 0 129 41" fill="none" xmlns="http://www.w3.org/2000/svg" xmlns:c2pa="http://c2pa.org/manifest"><metadata><c2pa:manifest>AAAWgmp1bWIAAAAeanVtZGMycGEAEQAQgAAAqgA4m3EDYzJwYQAAABZcanVtYgAAAEdqdW1kYzJtYQARABCAAACqADibcQN1cm46YzJwYTozMzZlMzE1NS0yNzFlLTQ5MjMtYmVkNy1lZjJiNWRiODNjZDYAAAADl2p1bWIAAAApanVtZGMyYXMAEQAQgAAAqgA4m3EDYzJwYS5hc3NlcnRpb25zAAAAALxqdW1iAAAARGp1bWRjYm9yABEAEIAAAKoAOJtxE2MycGEuaW5ncmVkaWVudC52MwAAAAAYYzJzaOw/47t+Rax4mW6Mvbkj6Y4AAABwY2JvcqNpZGM6Zm9ybWF0bWltYWdlL3N2Zyt4bWxqaW5zdGFuY2VJRHgseG1wOmlpZDo4ZDEyZTZlNC0xZjJjLTQ1ZGItYjZkMy01YWQwNTI0NzVkNjJscmVsYXRpb25zaGlwaHBhcmVudE9mAAAB4mp1bWIAAABBanVtZGNib3IAEQAQgAAAqgA4m3ETYzJwYS5hY3Rpb25zLnYyAAAAABhjMnNoO3pwipRtZzWRMC9Tq79bGQAAAZljYm9yomdhY3Rpb25zgqJmYWN0aW9ua2MycGEub3BlbmVkanBhcmFtZXRlcnOha2luZ3JlZGllbnRzgaJjdXJseC1zZWxmI2p1bWJmPWMycGEuYXNzZXJ0aW9ucy9jMnBhLmluZ3JlZGllbnQudjNkaGFzaFggAZ3ZbSk1BdzEtqIA/diL5bjVejITw1iia7nPmkn8uKykZmFjdGlvbngdY29tLmFudGhyb3BpYy5jbGF1ZGUucHJvdmlkZWRqcGFyYW1ldGVyc6F4H2NvbS5hbnRocm9waWMub3JpZ2luLWNvbmZpZGVuY2VndW5rbm93bmtkZXNjcmlwdGlvbnhmQ2xhdWRlIHByb3ZpZGVkIHRoaXMgZmlsZSBhdCB0aGUgcmVxdWVzdCBvZiBhIHVzZXIgYW5kIG1heSBoYXZlIGNyZWF0ZWQgb3IgbW9kaWZpZWQgdGhlIGZpbGUgY29udGVudHMubXNvZnR3YXJlQWdlbnShZG5hbWVmQ2xhdWRlcmFsbEFjdGlvbnNJbmNsdWRlZPUAAADIanVtYgAAAEBqdW1kY2JvcgARABCAAACqADibcRNjMnBhLmhhc2guZGF0YQAAAAAYYzJzaPZ5Q85HY4D7er7CcnzVzGcAAACAY2JvcqVjYWxnZnNoYTI1NmNwYWRNAAAAAAAAAAAAAAAAAGRoYXNoWCBL9qsx9lsS9qaYIlz+/RLGTmqsOannifWYsh6Gx0cN8GRuYW1lbmp1bWJmIG1hbmlmZXN0amV4Y2x1c2lvbnOBomVzdGFydBigZmxlbmd0aBkeBAAAAj5qdW1iAAAAJ2p1bWRjMmNsABEAEIAAAKoAOJtxA2MycGEuY2xhaW0udjIAAAACD2Nib3KlY2FsZ2ZzaGEyNTZpc2lnbmF0dXJleE1zZWxmI2p1bWJmPS9jMnBhL3VybjpjMnBhOjMzNmUzMTU1LTI3MWUtNDkyMy1iZWQ3LWVmMmI1ZGI4M2NkNi9jMnBhLnNpZ25hdHVyZWppbnN0YW5jZUlEeCx4bXA6aWlkOjUwOWNjNTZjLTI3MWItNGE5ZS1iNjE4LTcwOWRiMTQ0YmVhY3JjcmVhdGVkX2Fzc2VydGlvbnODomN1cmx4LXNlbGYjanVtYmY9YzJwYS5hc3NlcnRpb25zL2MycGEuaW5ncmVkaWVudC52M2RoYXNoWCABndltKTUF3MS2ogD92IvluNV6MhPDWKJruc+aSfy4rKJjdXJseCpzZWxmI2p1bWJmPWMycGEuYXNzZXJ0aW9ucy9jMnBhLmFjdGlvbnMudjJkaGFzaFggoJ3rFWQVPvWYOVK6Shc2MtPxqTMowdLlJgoQRoC9KCaiY3VybHgpc2VsZiNqdW1iZj1jMnBhLmFzc2VydGlvbnMvYzJwYS5oYXNoLmRhdGFkaGFzaFggiYAdaWkA5IDKFjGqIt4DTgy/DG7N1ykTveq8Nd63ZaB0Y2xhaW1fZ2VuZXJhdG9yX2luZm+jZG5hbWVvQW50aHJvcGljIEZpbGVzZ3ZlcnNpb25lMS4wLjBrc3BlY1ZlcnNpb25lMi40LjAAABA4anVtYgAAAChqdW1kYzJjcwARABCAAACqADibcQNjMnBhLnNpZ25hdHVyZQAAABAIY2JvctKEWQISogEmGCFZAgowggIGMIIBjaADAgECAhRA5aAK7sI50L64g/oGQgU9Z1UTADAKBggqhkjOPQQDAzBJMRcwFQYDVQQKEw5BbnRocm9waWMsIFBCQzEuMCwGA1UEAxMlQW50aHJvcGljIENvbnRlbnQgQ3JlZGVudGlhbHMgUm9vdCBDQTAeFw0yNjA4MDcxODQzNTZaFw0yODA4MDYxOTQzNTZaMEQxFzAVBgNVBAoTDkFudGhyb3BpYywgUEJDMSkwJwYDVQQDEyBBbnRocm9waWMgQ2xhdWRlIENvbnRlbnQgU2lnbmluZzBZMBMGByqGSM49AgEGCCqGSM49AwEHA0IABJh6CmvLUBgFFNU0vUKlOVtE6djd17L5SuwX0LemFisBM3dkd/3cyjxFA3Qo5S46fX0/ihY0VZ7mfb9KF703t5OjWDBWMA4GA1UdDwEB/wQEAwIHgDAVBgNVHSUEDjAMBgorBgEEAYPoXgIBMAwGA1UdEwEB/wQCMAAwHwYDVR0jBBgwFoAUzlHiBIFOZFsj+OPEz5o+nMHXXMIwCgYIKoZIzj0EAwMDZwAwZAIwMXMdFJ4BetLLVY7ORuE9noqbbAZOZn/aArXyTwFAZfKrPzxF2vPoJNf1+UCdg1XGAjBwX1zd9WGqYkqmL5SFqw1QySjr1zJfpJM9+1rdDwSPLMOPOjKuiXjoU/pUUeG9RwmhY3BhZFkNngAAAAAAAAAAAAAAAAAAAAAAAAAAAAAAAAAAAAAAAAAAAAAAAAAAAAAAAAAAAAAAAAAAAAAAAAAAAAAAAAAAAAAAAAAAAAAAAAAAAAAAAAAAAAAAAAAAAAAAAAAAAAAAAAAAAAAAAAAAAAAAAAAAAAAAAAAAAAAAAAAAAAAAAAAAAAAAAAAAAAAAAAAAAAAAAAAAAAAAAAAAAAAAAAAAAAAAAAAAAAAAAAAAAAAAAAAAAAAAAAAAAAAAAAAAAAAAAAAAAAAAAAAAAAAAAAAAAAAAAAAAAAAAAAAAAAAAAAAAAAAAAAAAAAAAAAAAAAAAAAAAAAAAAAAAAAAAAAAAAAAAAAAAAAAAAAAAAAAAAAAAAAAAAAAAAAAAAAAAAAAAAAAAAAAAAAAAAAAAAAAAAAAAAAAAAAAAAAAAAAAAAAAAAAAAAAAAAAAAAAAAAAAAAAAAAAAAAAAAAAAAAAAAAAAAAAAAAAAAAAAAAAAAAAAAAAAAAAAAAAAAAAAAAAAAAAAAAAAAAAAAAAAAAAAAAAAAAAAAAAAAAAAAAAAAAAAAAAAAAAAAAAAAAAAAAAAAAAAAAAAAAAAAAAAAAAAAAAAAAAAAAAAAAAAAAAAAAAAAAAAAAAAAAAAAAAAAAAAAAAAAAAAAAAAAAAAAAAAAAAAAAAAAAAAAAAAAAAAAAAAAAAAAAAAAAAAAAAAAAAAAAAAAAAAAAAAAAAAAAAAAAAAAAAAAAAAAAAAAAAAAAAAAAAAAAAAAAAAAAAAAAAAAAAAAAAAAAAAAAAAAAAAAAAAAAAAAAAAAAAAAAAAAAAAAAAAAAAAAAAAAAAAAAAAAAAAAAAAAAAAAAAAAAAAAAAAAAAAAAAAAAAAAAAAAAAAAAAAAAAAAAAAAAAAAAAAAAAAAAAAAAAAAAAAAAAAAAAAAAAAAAAAAAAAAAAAAAAAAAAAAAAAAAAAAAAAAAAAAAAAAAAAAAAAAAAAAAAAAAAAAAAAAAAAAAAAAAAAAAAAAAAAAAAAAAAAAAAAAAAAAAAAAAAAAAAAAAAAAAAAAAAAAAAAAAAAAAAAAAAAAAAAAAAAAAAAAAAAAAAAAAAAAAAAAAAAAAAAAAAAAAAAAAAAAAAAAAAAAAAAAAAAAAAAAAAAAAAAAAAAAAAAAAAAAAAAAAAAAAAAAAAAAAAAAAAAAAAAAAAAAAAAAAAAAAAAAAAAAAAAAAAAAAAAAAAAAAAAAAAAAAAAAAAAAAAAAAAAAAAAAAAAAAAAAAAAAAAAAAAAAAAAAAAAAAAAAAAAAAAAAAAAAAAAAAAAAAAAAAAAAAAAAAAAAAAAAAAAAAAAAAAAAAAAAAAAAAAAAAAAAAAAAAAAAAAAAAAAAAAAAAAAAAAAAAAAAAAAAAAAAAAAAAAAAAAAAAAAAAAAAAAAAAAAAAAAAAAAAAAAAAAAAAAAAAAAAAAAAAAAAAAAAAAAAAAAAAAAAAAAAAAAAAAAAAAAAAAAAAAAAAAAAAAAAAAAAAAAAAAAAAAAAAAAAAAAAAAAAAAAAAAAAAAAAAAAAAAAAAAAAAAAAAAAAAAAAAAAAAAAAAAAAAAAAAAAAAAAAAAAAAAAAAAAAAAAAAAAAAAAAAAAAAAAAAAAAAAAAAAAAAAAAAAAAAAAAAAAAAAAAAAAAAAAAAAAAAAAAAAAAAAAAAAAAAAAAAAAAAAAAAAAAAAAAAAAAAAAAAAAAAAAAAAAAAAAAAAAAAAAAAAAAAAAAAAAAAAAAAAAAAAAAAAAAAAAAAAAAAAAAAAAAAAAAAAAAAAAAAAAAAAAAAAAAAAAAAAAAAAAAAAAAAAAAAAAAAAAAAAAAAAAAAAAAAAAAAAAAAAAAAAAAAAAAAAAAAAAAAAAAAAAAAAAAAAAAAAAAAAAAAAAAAAAAAAAAAAAAAAAAAAAAAAAAAAAAAAAAAAAAAAAAAAAAAAAAAAAAAAAAAAAAAAAAAAAAAAAAAAAAAAAAAAAAAAAAAAAAAAAAAAAAAAAAAAAAAAAAAAAAAAAAAAAAAAAAAAAAAAAAAAAAAAAAAAAAAAAAAAAAAAAAAAAAAAAAAAAAAAAAAAAAAAAAAAAAAAAAAAAAAAAAAAAAAAAAAAAAAAAAAAAAAAAAAAAAAAAAAAAAAAAAAAAAAAAAAAAAAAAAAAAAAAAAAAAAAAAAAAAAAAAAAAAAAAAAAAAAAAAAAAAAAAAAAAAAAAAAAAAAAAAAAAAAAAAAAAAAAAAAAAAAAAAAAAAAAAAAAAAAAAAAAAAAAAAAAAAAAAAAAAAAAAAAAAAAAAAAAAAAAAAAAAAAAAAAAAAAAAAAAAAAAAAAAAAAAAAAAAAAAAAAAAAAAAAAAAAAAAAAAAAAAAAAAAAAAAAAAAAAAAAAAAAAAAAAAAAAAAAAAAAAAAAAAAAAAAAAAAAAAAAAAAAAAAAAAAAAAAAAAAAAAAAAAAAAAAAAAAAAAAAAAAAAAAAAAAAAAAAAAAAAAAAAAAAAAAAAAAAAAAAAAAAAAAAAAAAAAAAAAAAAAAAAAAAAAAAAAAAAAAAAAAAAAAAAAAAAAAAAAAAAAAAAAAAAAAAAAAAAAAAAAAAAAAAAAAAAAAAAAAAAAAAAAAAAAAAAAAAAAAAAAAAAAAAAAAAAAAAAAAAAAAAAAAAAAAAAAAAAAAAAAAAAAAAAAAAAAAAAAAAAAAAAAAAAAAAAAAAAAAAAAAAAAAAAAAAAAAAAAAAAAAAAAAAAAAAAAAAAAAAAAAAAAAAAAAAAAAAAAAAAAAAAAAAAAAAAAAAAAAAAAAAAAAAAAAAAAAAAAAAAAAAAAAAAAAAAAAAAAAAAAAAAAAAAAAAAAAAAAAAAAAAAAAAAAAAAAAAAAAAAAAAAAAAAAAAAAAAAAAAAAAAAAAAAAAAAAAAAAAAAAAAAAAAAAAAAAAAAAAAAAAAAAAAAAAAAAAAAAAAAAAAAAAAAAAAAAAAAAAAAAAAAAAAAAAAAAAAAAAAAAAAAAAAAAAAAAAAAAAAAAAAAAAAAAAAAAAAAAAAAAAAAAAAAAAAAAAAAAAAAAAAAAAAAAAAAAAAAAAAAAAAAAAAAAAAAAAAAAAAAAAAAAAAAAAAAAAAAAAAAAAAAAAAAAAAAAAAAAAAAAAAAAAAAAAAAAAAAAAAAAAAAAAAAAAAAAAAAAAAAAAAAAAAAAAAAAAAAAAAAAAAAAAAAAAAAAAAAAAAAAAAAAAAAAAAAAAAAAAAAAAAAAAAAAAAAAAAAAAAAAAAAAAAAAAAAAAAAAAAAAAAAAAAAAAAAAAAAAAAAAAAAAAAAAAAAAAAAAAAAAAAAAAAAAAAAAAAAAAAAAAAAAAAAAAAAAAAAAAAAAAAAAAAAAAAAAAAAAAAAAAAAAAAAAAAAAAAAAAAAAAAAAAAAAAAAAAAAAAAAAAAAAAAAAAAAAAAAAAAAAAAAAAAAAAAAAAAAAAAAAAAAAAAAAAAAAAAAAAAAAAAAAAAAAAAAAAAAAAAAAAAAAAAAAAAAAAAAAAAAAAAAAAAAAAAAAAAAAAAAAAAAAAAAAAAAAAAAAAAAAAAAAAAAAAAAAAAAAAAAAAAAAAAAAAAAAAAAAAAAAAAAAAAAAAAAAAAAAAAAAAAAAAAAAAAAAAAAAAAAAAAAAAAAAAAAAAAAAAAAAAAAAAAAAAAAAAAAAAAAAAAAAAAAAAAAAAAAAAAAAAAAAAAAAAAAAAAAAAAAAAAAAAAAAAAAAAAAAAAAAAAAAAAAAAAAAAAAAAAAAAAAAAAAAAAAAAAAAAAAAAAAAAAAAAAAAAAAAAAAAAAAAAAAAAAAAAAAAAAAAAAAAAAAAAAAAAAAAAAAAAAAAAAAAAAAAAAAAAAAAAAAAAAAAAAAAAAAAAAAAAAAAAAAAAAAAAAAAAAAAAAAAAAAAAAAAAAAAAAAAAAAAAAAAAAAAAAAAAAAAAAAAAAAAAAAAAAAAAAAAAAAAAAAAAAAAAAAAAAAAAAAAAAAAAAAAAAAAAAAAAAAAAAAAAAAAAAAAAAAAAAAAAAAAAAAAAAAAAAAAAAAAAAAAAAAAAAAAAAAAAAAAAAAAAAAAAAAAAAAAAAAAAAAAAAAAAAAAAAAAAAAAAAAAAAAAAAAAAAAAAAAAAAAAAAAAAAAAAAAAAAAAAAAAAAAAAAAAAAAAAAAAAAAAAAAAAAAAAAAAAAAAAAAAAAAAAAAAAAAAAAAAAAAAAAAAAAAAAAAAAAAAAAAAAAAAAAAAAAAAAAAAAAAAAAAAAAAAAAAAAAAAAAAAAAAAAAAAAAAAAAAAAAAAAAAAAAAAAAAAAAAAAAAAAAAAAAAAAAAAAAAAAAAAAAAAAAAAAAAAAAAAAAAAAAAAAAAAAAAAAAAAAAAAAAAAAAAAAAAAAAAAAAAAAAAAAAAAAAAAAAAAAAAAAAAAAAAAAAAAAAAAAAAAAAAAAAAAAAAAAAAAAAAAAAAAAAAAAAAAAAAAAAAAAAAAAAAAAAAAAAAAAAAAAAAAAAAAAAAAAAAAAAAAAAAAAAAAAAAAAAAAAAAAAAAAAAAAAAAAAAAAAAAAAAAAAAAAAAAAAAAAAAAAAAAAAAAAAAAAAAAAAAAAAAAAAAAAAAAAAAAAAAAAAAAAAAAAAAAAAAAAAAAAAAAAAAAAAAAAAAAAAAAAAAAAAAAAAAAAAAAAAAAAAAAAAAAAAAAAPZYQA64Ehw9IWbZx14oeFuXfQaF42vmW4SWKwpFkA2mRgikokMmn71caHCxrsfAESIUyQbj9+iFbowlPzk1VrMY4lo=</c2pa:manifest></metadata>
<g clip-path="url(#clip0_53_893)">
<path d="M79.802 20.5196V20.4556C79.802 16.0893 83.0781 12.4869 87.6847 12.4869C89.9522 12.4869 91.55 13.1234 92.8088 14.1968C93.1212 14.4518 93.5676 15.0521 93.4693 15.9255C93.3802 16.7986 92.7017 17.49 91.8446 17.6083C91.3026 17.6835 90.7535 17.5362 90.3181 17.1989C89.572 16.5584 88.6245 16.2129 87.6489 16.2257C85.5241 16.2257 84.0065 18.136 84.0065 20.4013V20.456C84.0065 22.8027 85.4975 24.6859 87.8185 24.6859C88.9432 24.6859 89.8092 24.2859 90.6216 23.6306C90.8537 23.4577 91.2735 23.2306 91.7821 23.2306C92.7822 23.2306 93.5676 24.0584 93.5676 25.0862C93.5676 25.6591 93.3178 26.114 92.9515 26.4507C92.2353 27.1228 91.3957 27.644 90.4811 27.9843C89.5666 28.3246 88.595 28.4773 87.6223 28.4337C86.0742 28.463 84.5536 28.0147 83.2599 27.1477C81.9663 26.2807 80.9601 25.0354 80.3734 23.5753C79.9841 22.6058 79.7898 21.567 79.802 20.5196ZM95.389 20.5196V20.4556C95.389 16.0619 98.8614 12.496 103.53 12.496C108.181 12.496 111.628 16.0073 111.628 20.401V20.4556C111.628 24.8497 108.146 28.4156 103.477 28.4156C98.8347 28.4156 95.389 24.913 95.389 20.5102V20.5196ZM0.813709 14.7516C0.812532 14.1726 1.03714 13.6168 1.43811 13.2065C1.83908 12.7962 2.38358 12.565 2.95182 12.5638C3.52006 12.5626 4.06549 12.7915 4.46813 13.2001C4.87077 13.6087 5.09763 14.1635 5.09881 14.7426V14.9426C6.07195 13.6598 7.35741 12.4866 9.50883 12.4866C11.4729 12.4866 12.9461 13.3687 13.7315 14.9154C14.3136 14.1532 15.06 13.5377 15.913 13.1165C16.766 12.6953 17.7026 12.4798 18.6504 12.4866C21.8105 12.4866 23.7124 14.424 23.7124 18.0994V26.041C23.7142 26.3254 23.6611 26.6073 23.5559 26.8707C23.4508 27.1342 23.2958 27.3739 23.0997 27.5762C22.9036 27.7786 22.6703 27.9395 22.4131 28.05C22.156 28.1604 21.88 28.2181 21.6009 28.2198C21.0374 28.2232 20.4957 27.9985 20.0947 27.595C19.6938 27.1915 19.4665 26.6423 19.4628 26.0681V19.5283C19.4628 17.4813 18.5702 16.4351 16.9721 16.4351C15.3832 16.4351 14.4012 17.4813 14.4012 19.5283V26.0417C14.4047 26.6171 14.1838 27.1705 13.7871 27.58C13.3903 27.9894 12.8501 28.2215 12.2854 28.2252C11.7207 28.2288 11.1777 28.0037 10.7759 27.5994C10.374 27.1951 10.1463 26.6446 10.1427 26.0692V19.528C10.1427 17.481 9.2501 16.4347 7.6612 16.4347C6.07195 16.4347 5.08993 17.481 5.08993 19.528V26.0869C5.12599 26.6123 4.97445 27.1332 4.66324 27.5537C4.35203 27.9742 3.90213 28.2658 3.3965 28.3749C2.89088 28.4839 2.36361 28.403 1.91191 28.1471C1.46021 27.8911 1.11454 27.4774 0.938637 26.9822C0.83857 26.7016 0.796051 26.403 0.813709 26.105V14.7516ZM114.716 14.7968C114.715 14.5119 114.768 14.2294 114.873 13.9655C114.979 13.7016 115.134 13.4615 115.33 13.2587C115.527 13.056 115.761 12.8947 116.018 12.784C116.276 12.6734 116.552 12.6155 116.832 12.6137C117.112 12.6119 117.389 12.6663 117.648 12.7737C117.907 12.881 118.142 13.0394 118.341 13.2396C118.54 13.4398 118.699 13.6779 118.807 13.9405C118.916 14.203 118.973 14.4848 118.974 14.7697V14.9426C119.956 13.6507 121.206 12.4866 123.367 12.4866C126.598 12.4866 128.473 14.6514 128.473 18.1721V26.041C128.475 26.3978 128.391 26.7497 128.228 27.0655C128.065 27.3813 127.828 27.6512 127.538 27.8513C127.248 28.0514 126.914 28.1756 126.566 28.2127C126.218 28.2499 125.866 28.1989 125.542 28.0643C125.152 27.9025 124.817 27.6265 124.581 27.2712C124.345 26.9159 124.218 26.4972 124.215 26.0681V19.5554C124.215 17.4998 123.268 16.4354 121.635 16.4354C120.01 16.4354 118.966 17.4998 118.966 19.5554V26.0598C118.968 26.4166 118.884 26.7685 118.721 27.0843C118.558 27.4001 118.321 27.67 118.031 27.8701C117.741 28.0702 117.407 28.1944 117.059 28.2315C116.71 28.2687 116.358 28.2177 116.034 28.0831C115.644 27.9213 115.31 27.6454 115.074 27.2901C114.838 26.9349 114.71 26.5163 114.707 26.0873V14.8153L114.716 14.7972V14.7968ZM64.215 14.77C64.2168 14.4851 64.2736 14.2034 64.3822 13.9408C64.4908 13.6783 64.6491 13.4401 64.848 13.2399C65.0469 13.0397 65.2826 12.8814 65.5416 12.774C65.8006 12.6666 66.0778 12.6123 66.3574 12.614C66.637 12.6158 66.9135 12.6737 67.1711 12.7844C67.4288 12.8951 67.6625 13.0564 67.859 13.2591C68.0554 13.4618 68.2108 13.702 68.3162 13.9659C68.4215 14.2298 68.4749 14.5123 68.4731 14.7972V26.0413C68.4749 26.3263 68.4216 26.6087 68.3162 26.8727C68.2109 27.1366 68.0555 27.3767 67.8591 27.5795C67.6626 27.7822 67.4289 27.9435 67.1713 28.0542C66.9137 28.1649 66.6371 28.2228 66.3576 28.2247C66.078 28.2265 65.8008 28.1721 65.5418 28.0648C65.2828 27.9574 65.0471 27.7991 64.8481 27.5989C64.6492 27.3987 64.4909 27.1606 64.3822 26.898C64.2736 26.6355 64.2168 26.3537 64.215 26.0688V14.77ZM72.678 9.23961C72.6798 8.9547 72.7366 8.67293 72.8453 8.4104C72.9539 8.14787 73.1122 7.90971 73.3111 7.70952C73.5101 7.50933 73.7458 7.35104 74.0048 7.24367C74.2638 7.13631 74.541 7.08198 74.8206 7.08378C75.1002 7.08559 75.3767 7.14349 75.6343 7.25419C75.8919 7.36489 76.1256 7.52621 76.3221 7.72895C76.5185 7.93169 76.6739 8.17187 76.7793 8.43579C76.8846 8.6997 76.9379 8.98218 76.9362 9.26709V26.0417C76.9379 26.3266 76.8846 26.6091 76.7793 26.873C76.6739 27.1369 76.5185 27.3771 76.3221 27.5798C76.1256 27.7826 75.8919 27.9439 75.6343 28.0546C75.3767 28.1653 75.1002 28.2232 74.8206 28.225C74.541 28.2268 74.2638 28.1725 74.0048 28.0651C73.7458 27.9577 73.5101 27.7995 73.3111 27.5993C73.1122 27.3991 72.9539 27.1609 72.8453 26.8984C72.7366 26.6359 72.6798 26.3541 72.678 26.0692V9.23926V9.23961ZM107.423 20.5015V20.4469C107.423 18.2 105.825 16.2351 103.477 16.2351C101.049 16.2351 99.5935 18.1453 99.5935 20.3923V20.4469C99.5935 22.7029 101.182 24.6681 103.53 24.6681C105.968 24.6681 107.423 22.7575 107.423 20.5015ZM64.0006 9.13004C64.0006 7.87439 65.0274 7.11057 66.3664 7.11057C67.7055 7.11057 68.7411 7.87474 68.7411 9.13004V9.18465C68.7411 10.4309 67.7055 11.2313 66.3664 11.2313C65.0274 11.2313 64.0006 10.4309 64.0006 9.18465V9.13004Z" fill="#555555"/>
<path d="M43.7003 34.9595C39.215 34.9523 34.9157 33.1323 31.7458 29.8987C28.5759 26.6651 26.7943 22.2821 26.792 17.7115C26.7948 15.1889 27.3404 12.6976 28.3902 10.413C29.4401 8.12847 30.9686 6.10623 32.8683 4.48873C34.768 2.87124 36.9926 1.69781 39.3854 1.0511C41.7782 0.404381 44.281 0.300106 46.7177 0.745612C50.1494 1.35306 53.3103 3.03459 55.7612 5.5566C58.2121 8.07861 59.8313 11.3159 60.3939 14.8187C60.8762 17.8482 60.5993 20.8319 59.5996 23.6152C59.1216 25.0175 58.1633 26.1971 56.9005 26.9374C55.6378 27.6778 54.1554 27.9291 52.7255 27.6454C51.3617 27.4051 50.1134 26.7145 49.1725 25.6802C48.8235 25.2912 48.5264 24.857 48.2888 24.3887C47.1071 25.2319 45.7234 25.7334 44.2846 25.8398C42.8457 25.9463 41.4054 25.6538 40.1166 24.9933C38.8277 24.3329 37.7384 23.3293 36.9642 22.0888C36.19 20.8484 35.7598 19.4175 35.7192 17.948C35.6822 16.4761 36.0367 15.0214 36.7452 13.7381C37.4536 12.4548 38.4896 11.3907 39.7433 10.6587C40.997 9.92664 42.4218 9.55391 43.8665 9.57999C45.3112 9.60607 46.7221 10.03 47.9495 10.8068C48.1334 10.5319 48.3789 10.3056 48.6658 10.1468C48.9526 9.98792 49.2725 9.9011 49.5989 9.89352C49.9253 9.88593 50.2488 9.9578 50.5424 10.1032C50.8361 10.2485 51.0915 10.4632 51.2874 10.7293C51.5499 11.0852 51.694 11.5172 51.6987 11.9623V21.4322C51.6987 22.0416 51.8954 22.5418 52.2524 22.915C52.5558 23.2333 52.9665 23.4517 53.4395 23.5334C53.9038 23.6155 54.368 23.5609 54.752 23.37C55.2073 23.1515 55.5555 22.7421 55.7517 22.1874C56.4527 20.2141 56.6771 18.0978 56.4059 16.0176C56.1348 13.9373 55.376 11.9541 54.1939 10.2357C53.0119 8.51725 51.4413 7.11403 49.6148 6.14464C47.7883 5.17526 45.7596 4.66819 43.7003 4.66631C40.3057 4.67348 37.0523 6.05143 34.6527 8.49829C32.2532 10.9451 30.9033 14.2614 30.8986 17.7206C30.9029 19.7074 31.3516 21.6672 32.2106 23.4508C33.0696 25.2345 34.3163 26.7952 35.856 28.0142C37.3956 29.2332 39.1877 30.0786 41.0961 30.486C43.0045 30.8934 44.9788 30.8522 46.8692 30.3654C47.1313 30.2961 47.4043 30.2804 47.6723 30.3194C47.9404 30.3584 48.1981 30.4513 48.4307 30.5926C48.6632 30.734 48.8659 30.921 49.0269 31.1428C49.188 31.3646 49.3042 31.6168 49.3688 31.8847C49.4735 32.287 49.457 32.712 49.3214 33.1045C49.1857 33.497 48.9372 33.8388 48.6083 34.0854C48.3899 34.2493 48.1417 34.3672 47.8782 34.4319C46.515 34.78 45.1145 34.954 43.7092 34.9501L43.7003 34.9595ZM43.6911 13.7453C43.1787 13.7458 42.6715 13.8491 42.1984 14.0495C41.7253 14.2499 41.2956 14.5432 40.9338 14.9129C40.389 15.4696 40.0184 16.1784 39.8689 16.9497C39.7193 17.7209 39.7976 18.5201 40.0937 19.246C40.3898 19.972 40.8904 20.5922 41.5324 21.0283C42.1744 21.4644 42.9288 21.6967 43.7003 21.6959C44.2126 21.6954 44.7198 21.592 45.1929 21.3917C45.6661 21.1914 46.0958 20.8981 46.4577 20.5285C46.8195 20.159 47.1064 19.7204 47.3019 19.2378C47.4973 18.7552 47.5976 18.2381 47.5969 17.716C47.5957 16.6617 47.1835 15.651 46.451 14.9064C45.7185 14.1617 44.7257 13.7441 43.6911 13.7453Z" fill="#555555"/>
<path d="M61.3465 36.3618H58.7029L58.1093 38.0397H57.2512L59.6607 31.6105H60.3888L62.8023 38.0397H61.9487L61.3465 36.3618ZM58.9545 35.664H61.0994L60.0246 32.6567L58.9545 35.664ZM67.395 35.5228V38.0397H66.5631V31.6105H68.89C69.5805 31.6105 70.1209 31.79 70.5107 32.1489C70.9035 32.5082 71.1001 32.9837 71.1001 33.5753C71.1001 34.1993 70.908 34.6807 70.5236 35.0192C70.1424 35.3548 69.5949 35.5228 68.8815 35.5228H67.395ZM67.395 34.8296H68.89C69.3348 34.8296 69.6758 34.7235 69.9126 34.5113C70.1495 34.2967 70.268 33.9875 70.268 33.584C70.268 33.2014 70.1495 32.8953 69.9126 32.6658C69.6758 32.4362 69.3508 32.3169 68.9378 32.3082H67.395V34.8293V34.8296ZM73.1925 33.8404C73.5478 33.3959 74.0103 33.1736 74.5794 33.1736C75.5702 33.1736 76.07 33.743 76.0788 34.8825V38.0397H75.277V34.878C75.274 34.5336 75.1961 34.279 75.0429 34.1141C74.8927 33.9493 74.6572 33.8668 74.3367 33.8668C74.0766 33.8668 73.8486 33.9374 73.6519 34.079C73.4547 34.2214 73.2965 34.4128 73.1925 34.6352V38.0397H72.3911V31.2571H73.1925V33.8404ZM77.4216 35.6066C77.4216 35.1385 77.5111 34.7176 77.6903 34.3437C77.8722 33.9698 78.1238 33.6814 78.4443 33.4783C78.7679 33.2752 79.1362 33.1736 79.5492 33.1736C80.1878 33.1736 80.7036 33.3986 81.0964 33.8491C81.492 34.2995 81.69 34.8985 81.69 35.6463V35.7037C81.69 36.1687 81.6019 36.5868 81.4258 36.9579C81.2524 37.3259 81.0026 37.6129 80.6759 37.8188C80.3523 38.0251 79.9799 38.128 79.558 38.128C78.9225 38.128 78.4067 37.9026 78.0111 37.4526C77.6182 37.0021 77.4216 36.4059 77.4216 35.664V35.6066ZM78.2275 35.7037C78.2275 36.2338 78.3477 36.6592 78.5873 36.9799C78.83 37.3009 79.1536 37.4613 79.558 37.4613C79.9652 37.4613 80.2888 37.2992 80.5288 36.9753C80.7684 36.6487 80.8882 36.1924 80.8882 35.6066C80.8882 35.0825 80.7657 34.6588 80.5199 34.335C80.2772 34.008 79.9536 33.8446 79.5492 33.8446C79.1536 33.8446 78.8344 34.0053 78.5917 34.3259C78.349 34.647 78.2275 35.1061 78.2275 35.7037ZM83.8087 33.2619L83.8346 33.8623C84.193 33.4032 84.661 33.1736 85.2385 33.1736C86.2294 33.1736 86.7295 33.743 86.738 34.8825V38.0397H85.9362V34.878C85.9335 34.5336 85.8553 34.279 85.7024 34.1141C85.5522 33.9493 85.3167 33.8668 84.9958 33.8668C84.7361 33.8668 84.5077 33.9374 84.3114 34.079C84.1141 34.2213 83.9559 34.4128 83.852 34.6352V38.0397H83.0502V33.2619H83.8087ZM90.2476 38.128C89.612 38.128 89.0949 37.9162 88.6962 37.4922C88.2975 37.0654 88.0982 36.4957 88.0982 35.7833V35.6331C88.0982 35.159 88.1863 34.7367 88.3627 34.3656C88.5416 33.992 88.7901 33.7006 89.1079 33.4915C89.4162 33.2834 89.778 33.1728 90.1479 33.1736C90.7575 33.1736 91.2313 33.3781 91.5692 33.7872C91.9071 34.1966 92.0764 34.7823 92.0764 35.5447V35.8849H88.9C88.9116 36.3559 89.0457 36.7371 89.3031 37.0286C89.5629 37.3169 89.8922 37.4613 90.2909 37.4613C90.5742 37.4613 90.8138 37.4025 91.0105 37.2846C91.2103 37.1638 91.3853 37.0048 91.5259 36.8164L92.0157 37.2053C91.6228 37.8202 91.0333 38.128 90.2476 38.128ZM90.1479 33.8446C89.8243 33.8446 89.553 33.9656 89.3331 34.207C89.1137 34.4453 88.9778 34.7809 88.9259 35.2136H91.2746V35.1517C91.2514 34.7367 91.1419 34.4157 90.9453 34.1893C90.749 33.9597 90.4831 33.8446 90.1479 33.8446ZM94.9358 35.0059L95.9758 33.2619H96.9121L95.3778 35.6244L96.9595 38.0397H96.0322L94.9491 36.2512L93.8657 38.0397H92.9339L94.5156 35.6244L92.9817 33.2619H93.9091L94.9358 35.0059ZM101.015 38.0397C100.969 37.9454 100.932 37.7778 100.903 37.5364C100.53 37.9308 100.085 38.128 99.568 38.128C99.1059 38.128 98.726 37.9955 98.4283 37.7305C98.1337 37.4626 97.9863 37.1242 97.9863 36.7148C97.9863 36.2174 98.1713 35.8317 98.541 35.5579C98.9137 35.2814 99.4366 35.143 100.11 35.143H100.89V34.7673C100.89 34.4821 100.806 34.2553 100.638 34.0877C100.471 33.9169 100.224 33.8313 99.8974 33.8313C99.6114 33.8313 99.3714 33.9051 99.1779 34.0522C98.9843 34.1993 98.8877 34.3774 98.8877 34.5865H98.0815C98.0815 34.3482 98.1638 34.1186 98.3286 33.8978C98.4962 33.6741 98.7215 33.4974 99.0045 33.3677C99.2905 33.2383 99.6042 33.1736 99.9449 33.1736C100.485 33.1736 100.908 33.312 101.215 33.5886C101.521 33.8623 101.68 34.2407 101.691 34.7235V36.9225C101.691 37.3611 101.746 37.7099 101.856 37.9691V38.0397H101.015ZM99.6851 37.4171C99.9363 37.4171 100.175 37.351 100.4 37.2185C100.625 37.0859 100.789 36.9138 100.89 36.7016V35.7214H100.261C99.2789 35.7214 98.7881 36.0143 98.7881 36.6C98.7881 36.8564 98.8717 37.0564 99.0393 37.2007C99.2069 37.3451 99.4219 37.4171 99.6851 37.4171ZM109.551 35.0679H106.817V37.3465H109.993V38.0397H105.985V31.6105H109.95V32.3079H106.817V34.3746H109.551V35.0679ZM112.693 36.9312L113.854 33.2616H114.673L112.992 38.0397H112.381L110.682 33.2619H111.501L112.693 36.9312ZM117.684 38.128C117.049 38.128 116.532 37.9162 116.133 37.4922C115.734 37.0654 115.535 36.4957 115.535 35.7833V35.6331C115.535 35.159 115.623 34.7367 115.799 34.3656C115.978 33.992 116.227 33.7006 116.545 33.4915C116.853 33.2833 117.215 33.1727 117.585 33.1736C118.194 33.1736 118.668 33.3781 119.006 33.7872C119.344 34.1966 119.513 34.7823 119.513 35.5447V35.8849H116.337C116.348 36.3559 116.482 36.7371 116.739 37.0286C117 37.3169 117.329 37.4613 117.728 37.4613C118.011 37.4613 118.251 37.4025 118.447 37.2846C118.647 37.1638 118.822 37.0049 118.963 36.8164L119.452 37.2053C119.059 37.8202 118.47 38.128 117.684 38.128ZM117.585 33.8446C117.261 33.8446 116.989 33.9656 116.77 34.207C116.55 34.4453 116.415 34.7809 116.363 35.2136H118.711V35.1517C118.688 34.7367 118.578 34.4157 118.382 34.1893C118.185 33.9597 117.92 33.8446 117.585 33.8446ZM121.558 33.2619L121.584 33.8623C121.942 33.4032 122.41 33.1736 122.988 33.1736C123.979 33.1736 124.479 33.743 124.487 34.8825V38.0397H123.686V34.878C123.683 34.5336 123.605 34.279 123.451 34.1141C123.301 33.9493 123.066 33.8668 122.745 33.8668C122.485 33.8668 122.257 33.9374 122.061 34.079C121.863 34.2214 121.705 34.4128 121.601 34.6352V38.0397H120.8V33.2619H121.558ZM127.139 32.1051V33.2619H128.014V33.8933H127.139V36.8564C127.139 37.0477 127.178 37.1917 127.256 37.2891C127.334 37.3833 127.467 37.4303 127.655 37.4303C127.747 37.4303 127.874 37.4126 128.036 37.3774V38.0397C127.836 38.097 127.629 38.1267 127.42 38.128C127.062 38.128 126.792 38.0178 126.61 37.7969C126.428 37.576 126.337 37.2626 126.337 36.8564V33.8933H125.483V33.2619H126.337V32.1051H127.139Z" fill="#555555"/>
</g>
<defs>
<clipPath id="clip0_53_893">
<rect width="128" height="40" fill="white" transform="translate(0.810059 0.474365)"/>
</clipPath>
</defs>
</svg>
